<svg xmlns="http://www.w3.org/2000/svg" width="152.731" height="28.875" viewBox="0 0 192.731 49.875">
  <g id="Layer" transform="translate(-59.63 -208.78)">
    <path id="Path_2" data-name="Path 2" d="M683.413,252.529a9.252,9.252,0,0,0-2.8-.4,9.491,9.491,0,0,0-2.715,18.554,9.248,9.248,0,0,0,2.795.4,9.492,9.492,0,0,0,2.718-18.554Z" transform="translate(-443.856 -31.459)" fill="none"/>
    <path id="Path_3" data-name="Path 3" d="M668.089,229.767a15.967,15.967,0,0,0-3.475-.458,15.333,15.333,0,0,0-2.918.261c-7.112,1.341-12.624,7.5-12.805,14.314-.219,8.214,4.4,14.591,11.906,16.439a15.968,15.968,0,0,0,3.475.458,15.335,15.335,0,0,0,2.918-.261c7.112-1.341,12.625-7.5,12.805-14.314C680.214,237.993,675.6,231.616,668.089,229.767Zm-3.607,24.755a9.247,9.247,0,0,1-2.795-.4,9.491,9.491,0,0,1,2.715-18.554,9.264,9.264,0,0,1,2.8.4,9.491,9.491,0,0,1-2.718,18.554Z" transform="translate(-427.641 -14.899)" fill="#333"/>
    <path id="Path_4" data-name="Path 4" d="M573.918,229.324a32.436,32.436,0,0,1-3.48-.014c-.617.008-1.226.027-1.829.069a2.545,2.545,0,0,0-.935.507,3.926,3.926,0,0,0-.551.79c-2.471,4.742-4.885,9.517-7.323,14.278-.1.192-.2.384-.313.579-.236.464-.469.924-.7,1.391-.016-.027-.027-.049-.044-.077-.016.027-.027.049-.044.077-.236-.466-.469-.93-.7-1.391-.11-.195-.214-.387-.313-.579-2.438-4.761-4.852-9.536-7.323-14.278a3.884,3.884,0,0,0-.551-.79,2.585,2.585,0,0,0-.935-.507c-.6-.041-1.212-.06-1.829-.069a32.436,32.436,0,0,1-3.48.014c-.283,0-.573,0-.867,0,5.381,10.546,10.6,20.778,16.047,31.453,5.447-10.674,10.666-20.907,16.047-31.453C574.488,229.329,574.2,229.326,573.918,229.324Z" transform="translate(-350.573 -14.899)" fill="#333"/>
    <path id="Path_5" data-name="Path 5" d="M229.915,229.321c-8.135.217-14.66,7.337-14.673,16.045q-.021,14.095,0,28.192h6.519v-1.881c0-3.565-.1-23.548-.071-26.678a9.3,9.3,0,0,1,8.733-9.479,9.57,9.57,0,0,1,1.72,19.042c-1.275.123-2.559.162-3.862.162v6.133q1.633,0,3.247-.008c8.445-.052,15.672-7.748,15.257-16.234C246.335,235.454,239.295,229.072,229.915,229.321Z" transform="translate(-112.928 -14.902)" fill="#333"/>
    <path id="Path_6" data-name="Path 6" d="M346.228,245.908A10.031,10.031,0,0,0,348.1,239.9a10.591,10.591,0,0,0-10.578-10.578H316.44l3.554,5.636h17.449a4.675,4.675,0,0,1,3.45,1.451,4.568,4.568,0,0,1,1.481,3.442,4.713,4.713,0,0,1-1.487,3.524,4.662,4.662,0,0,1-3.442,1.445l-5.071-.044,9.265,16.014h6.709l-6.412-11.223A10.357,10.357,0,0,0,346.228,245.908Z" transform="translate(-186.376 -14.907)" fill="#333"/>
    <path id="Path_7" data-name="Path 7" d="M118.216,233.662a14.2,14.2,0,0,0-9.355-4.32c-.507-.025-1.009-.027-1.506-.014-.5-.014-1-.011-1.506.014a14.2,14.2,0,0,0-9.355,4.32,14.5,14.5,0,0,0-3.955,6.629,16.273,16.273,0,0,0-.732,4.813q0,2.139,0,4.281c0,.529-.08,11.4-.08,11.4H98v-1.322c.011-.151.019-.307.019-.466,0-1.618,0-3.236-.008-4.854.071-2.929.063-5.858.08-8.787.03-5.134,3.409-9.133,8.028-9.745.055-.008.11-.016.167-.022.206-.025.417-.036.628-.044.143-.005.288-.014.433-.011s.288.005.433.011c.211.011.422.022.628.044.055.005.11.014.167.022,4.619.612,8,4.613,8.028,9.745.016,2.929.008,5.858.08,8.787-.005,1.618-.011,3.236-.008,4.854,0,.159.008.315.019.466v1.322h6.083c0-.211,0-.42,0-.628a11.036,11.036,0,0,0,.1-1.429q.008-3.875,0-7.754c0-.532,0-1.061,0-1.593q0-2.139,0-4.281a16.218,16.218,0,0,0-.735-4.816A14.369,14.369,0,0,0,118.216,233.662Z" transform="translate(-23.296 -14.907)" fill="#333"/>
    <g id="Group_1" data-name="Group 1" transform="translate(164.092 214.238)">
      <path id="Path_8" data-name="Path 8" d="M456.193,239.164a12.777,12.777,0,0,0-2.795-.3,12.885,12.885,0,0,0-12.885,12.751c0,.044,0,.09,0,.143,0,.1,0,.2.005.3a15.678,15.678,0,0,0,15.677,15.381A12.888,12.888,0,0,1,443.3,254.545a13.028,13.028,0,0,1,.074-1.4,12.891,12.891,0,0,1,20.427-9.007,12.876,12.876,0,0,0-7.611-4.978Z" transform="translate(-440.51 -236.068)" fill="#f15a29" fill-rule="evenodd"/>
      <path id="Path_9" data-name="Path 9" d="M479.25,265.728a12.888,12.888,0,0,1-12.888,12.891,13.037,13.037,0,0,1-1.4-.074,12.889,12.889,0,0,1-9.007-20.425,12.889,12.889,0,0,0-5.206,9.007,13.044,13.044,0,0,0-.074,1.4,12.888,12.888,0,0,0,12.891,12.888c.06,0,.121,0,.184,0h.044c.033,0,.069,0,.1,0a15.686,15.686,0,0,0,15.348-15.677Z" transform="translate(-447.891 -250.046)" fill="#f7941d" fill-rule="evenodd"/>
      <path id="Path_10" data-name="Path 10" d="M493.218,244.134v.055c0,.06,0,.118,0,.181a12.888,12.888,0,0,1-12.888,12.891,13.029,13.029,0,0,1-1.4-.074,12.831,12.831,0,0,1-9.007-5.2,12.893,12.893,0,0,0,20.2-7.611,13,13,0,0,0,.3-2.795,12.888,12.888,0,0,0-12.891-12.888,15.681,15.681,0,0,1,15.674,15.359.419.419,0,0,1,.005.085Z" transform="translate(-461.861 -228.687)" fill="#fbb040" fill-rule="evenodd"/>
      <path id="Path_11" data-name="Path 11" d="M454.226,228.831a12.752,12.752,0,0,1,1.632-.145,13.257,13.257,0,0,0-1.632.145Zm14.553,15.532a13,13,0,0,0,.3-2.795,12.888,12.888,0,0,0-12.89-12.888c-.06,0-.115,0-.173,0h-.088l-.052,0a15.677,15.677,0,0,0-15.367,15.677A12.888,12.888,0,0,1,453.4,231.472a12.776,12.776,0,0,1,2.795.3,12.895,12.895,0,0,1,7.611,20.2,12.918,12.918,0,0,0,4.975-7.611Z" transform="translate(-440.51 -228.68)" fill="#ef4136" fill-rule="evenodd"/>
    </g>
    <g id="Group_2" data-name="Group 2" transform="translate(59.976 215.453)">
      <path id="Path_12" data-name="Path 12" d="M63.855,234.547a3.767,3.767,0,0,1-2.959-1.434H60.89v21.042a10,10,0,0,0,3.373,7.562,11.894,11.894,0,0,0,2.556,1.8V233.11h-.005A3.761,3.761,0,0,1,63.855,234.547Z" transform="translate(-60.89 -233.11)" fill="#333"/>
    </g>
    <g id="Group_3" data-name="Group 3" transform="translate(59.63 208.78)">
      <path id="Path_13" data-name="Path 13" d="M62.94,211.016a2.724,2.724,0,0,0-.59-.066,2.718,2.718,0,0,0-2.721,2.691v.093a3.308,3.308,0,0,0,3.308,3.247,2.717,2.717,0,0,1-2.721-2.721,2.675,2.675,0,0,1,.066-.587,2.724,2.724,0,0,1,4.265-1.607,2.728,2.728,0,0,0-1.607-1.05Z" transform="translate(-59.63 -210.355)" fill="#f15a29" fill-rule="evenodd"/>
      <path id="Path_14" data-name="Path 14" d="M67.8,216.6a2.717,2.717,0,0,1-2.721,2.718,2.673,2.673,0,0,1-.587-.066,2.724,2.724,0,0,1-1.607-4.265,2.728,2.728,0,0,0-1.05,1.607,2.62,2.62,0,0,0-.049.293,2.594,2.594,0,0,0-.016.293,2.717,2.717,0,0,0,2.721,2.721h.069a3.3,3.3,0,0,0,3.242-3.3Z" transform="translate(-61.183 -213.287)" fill="#f7941d" fill-rule="evenodd"/>
      <path id="Path_15" data-name="Path 15" d="M70.755,212.046v.049a2.718,2.718,0,0,1-2.721,2.718,2.675,2.675,0,0,1-.587-.066,2.728,2.728,0,0,1-1.607-1.05A2.722,2.722,0,0,0,70.1,212.09a2.566,2.566,0,0,0,.049-.3,2.6,2.6,0,0,0,.016-.293,2.717,2.717,0,0,0-2.718-2.721,3.309,3.309,0,0,1,3.308,3.242.056.056,0,0,0-.005.025Z" transform="translate(-64.137 -208.78)" fill="#fbb040" fill-rule="evenodd"/>
      <path id="Path_16" data-name="Path 16" d="M62.534,208.833a2.839,2.839,0,0,1,.346-.03,2.938,2.938,0,0,0-.346.03ZM65.6,212.11a2.565,2.565,0,0,0,.049-.3,2.594,2.594,0,0,0,.016-.293A2.717,2.717,0,0,0,62.95,208.8h-.066a3.311,3.311,0,0,0-3.245,3.308,2.717,2.717,0,0,1,2.721-2.721,2.6,2.6,0,0,1,.293.016,2.776,2.776,0,0,1,.3.049,2.724,2.724,0,0,1,1.607,4.265A2.732,2.732,0,0,0,65.6,212.11Z" transform="translate(-59.637 -208.794)" fill="#ef4136" fill-rule="evenodd"/>
    </g>
  </g>
</svg>
